<?xml version="1.0" standalone="no"?>
<!DOCTYPE svg PUBLIC "-//W3C//DTD SVG 20010904//EN"
 "http://www.w3.org/TR/2001/REC-SVG-20010904/DTD/svg10.dtd">
<svg version="1.0" xmlns="http://www.w3.org/2000/svg"
 width="109.000000pt" height="25.000000pt" viewBox="0 0 109.000000 25.000000"
 preserveAspectRatio="xMidYMid meet">
<metadata>
Created by potrace 1.15, written by Peter Selinger 2001-2017
</metadata>
<g transform="translate(0.000000,25.000000) scale(0.100000,-0.100000)"
fill="#000000" stroke="none">
<path d="M30 125 l0 -95 55 0 c74 0 105 28 105 95 0 67 -31 95 -105 95 l-55 0
0 -95z"/>
<path d="M740 125 l0 -95 60 0 c53 0 60 2 60 20 0 16 -7 20 -30 20 -23 0 -30
4 -30 20 0 16 7 20 30 20 23 0 30 4 30 20 0 16 -7 20 -30 20 -20 0 -30 5 -30
15 0 10 10 15 30 15 23 0 30 4 30 20 0 18 -7 20 -60 20 l-60 0 0 -95z"/>
<path d="M890 125 c0 -94 0 -95 24 -95 21 0 25 5 28 38 l3 37 20 -38 c16 -31
24 -37 52 -37 39 0 40 3 12 42 -18 25 -20 34 -10 54 28 63 3 94 -75 94 l-54 0
0 -95z"/>
</g>
</svg>
